<?xml version="1.0" encoding="UTF-8" standalone="no"?>
<!-- Created with Inkscape (http://www.inkscape.org/) -->

<svg
   width="86.865791mm"
   height="34.520798mm"
   viewBox="0 0 328.31166 130.47231"
   version="1.1"
   id="svg5"
   xmlns="http://www.w3.org/2000/svg"
   xmlns:svg="http://www.w3.org/2000/svg">
  <defs
     id="defs2">
    <marker
       style="overflow:visible"
       id="Arrow3"
       refX="0"
       refY="0"
       orient="auto-start-reverse"
       markerWidth="4.2071066"
       markerHeight="7"
       viewBox="0 0 4.2071068 7"
       preserveAspectRatio="xMidYMid">
      <path
         style="fill:none;stroke:context-stroke;stroke-width:1;stroke-linecap:round"
         d="M 3,-3 0,0 3,3"
         id="arrow3"
         transform="rotate(180,0.125,0)" />
    </marker>
    <marker
       style="overflow:visible"
       id="Arrow3-3"
       refX="0"
       refY="0"
       orient="auto-start-reverse"
       markerWidth="4.2071066"
       markerHeight="7"
       viewBox="0 0 4.2071068 7"
       preserveAspectRatio="xMidYMid">
      <path
         style="fill:none;stroke:context-stroke;stroke-width:1;stroke-linecap:round"
         d="M 3,-3 0,0 3,3"
         id="arrow3-6"
         transform="rotate(180,0.125,0)" />
    </marker>
    <marker
       style="overflow:visible"
       id="Arrow3-3-5"
       refX="0"
       refY="0"
       orient="auto-start-reverse"
       markerWidth="4.2071066"
       markerHeight="7"
       viewBox="0 0 4.2071068 7"
       preserveAspectRatio="xMidYMid">
      <path
         style="fill:none;stroke:context-stroke;stroke-width:1;stroke-linecap:round"
         d="M 3,-3 0,0 3,3"
         id="arrow3-6-3"
         transform="rotate(180,0.125,0)" />
    </marker>
  </defs>
  <g
     id="layer1"
     transform="translate(-186.89037,-89.295045)">
    <g
       id="g3474">
      <path
         d="m 224.27573,101.93382 q 0.74667,-1.19467 2.16534,-1.64267 1.41866,-0.447996 3.50933,-0.447996 2.16533,0 3.43467,0.373336 1.26933,0.37333 1.94133,0.896 0.672,0.52267 0.97067,1.568 0.448,1.26933 0.448,3.88267 v 22.54934 q 0,9.85601 -6.12267,17.92001 -2.98667,3.808 -7.69067,6.19734 -4.704,2.31466 -10.45334,2.31466 -5.67467,0 -10.37867,-2.38933 -4.62934,-2.38933 -7.54134,-6.272 -6.048,-7.91467 -6.048,-17.92001 v -22.47468 q 0,-1.792 0.0747,-2.61333 0.14933,-0.896 0.74666,-2.016 0.59734,-1.12001 2.016,-1.56801 1.41867,-0.447996 3.80801,-0.447996 2.38933,0 3.808,0.447996 1.41867,0.448 1.94133,1.56801 0.896,1.71733 0.896,4.704 v 22.40001 q 0,4.55467 2.24,8.66134 1.12,2.09066 3.36001,3.36 2.24,1.26933 5.30133,1.26933 5.45067,0 8.13867,-4.032 2.688,-4.032 2.688,-9.33334 v -22.84801 q 0,-2.912 0.74667,-4.10667 z"
         style="font-size:74.6667px;font-family:'Fredoka One';-inkscape-font-specification:'Fredoka One';fill:#9954f0;fill-opacity:1;stroke:#250f25;stroke-opacity:0.983044"
         id="path312" />
      <path
         d="m 284.60641,145.38984 q 1.12,2.688 1.12,3.88267 0,2.83734 -4.62933,4.77867 -2.38934,1.04533 -3.88267,1.04533 -1.41867,0 -2.38934,-0.672 -0.896,-0.74666 -1.344,-1.49333 -0.74666,-1.41867 -5.824,-13.51467 l -2.31467,0.14933 h -9.408 v 8.43734 q 0,1.71733 -0.14934,2.61333 -0.0747,0.82134 -0.672,1.94134 -1.04533,2.016 -5.824,2.016 -5.22667,0 -6.12267,-2.76267 -0.448,-1.26933 -0.448,-3.88267 v -41.44002 q 0,-1.71733 0.0747,-2.53867 0.14933,-0.896 0.74667,-2.016 1.04533,-2.015999 5.824,-2.015999 h 16.12801 q 6.57067,0 12.768,4.778669 2.98667,2.31467 4.928,6.272 1.94134,3.95734 1.94134,8.81067 0,8.43734 -5.6,13.88801 1.64266,3.95734 5.07733,11.72267 z M 255.9344,126.34983 h 9.55734 q 2.16533,0 4.33066,-1.64266 2.16534,-1.64267 2.16534,-4.92801 0,-3.28533 -2.16534,-4.928 -2.16533,-1.71733 -4.48,-1.71733 h -9.408 z"
         style="font-size:74.6667px;font-family:'Fredoka One';-inkscape-font-specification:'Fredoka One';fill:#9954f0;fill-opacity:1;stroke:#250f25;stroke-opacity:0.983044"
         id="path314" />
      <path
         d="m 303.04899,143.59784 h 20.30934 q 2.464,0 3.584,0.59734 1.12,0.52266 1.49334,1.71733 0.37333,1.19467 0.37333,3.21067 0,1.94133 -0.37333,3.136 -0.37334,1.19467 -1.26934,1.64267 -1.41866,0.74666 -3.88267,0.74666 h -26.88001 q -5.22667,0 -6.12267,-2.83733 -0.448,-1.19467 -0.448,-3.808 v -41.51469 q 0,-1.71733 0.0747,-2.53867 0.14933,-0.896 0.74667,-2.016 1.04533,-2.015999 5.824,-2.015999 5.22667,0 6.19733,2.762669 0.37334,1.26933 0.37334,3.88267 z"
         style="font-size:74.6667px;font-family:'Fredoka One';-inkscape-font-specification:'Fredoka One';fill:#9954f0;fill-opacity:1;stroke:#250f25;stroke-opacity:0.983044"
         id="path316" />
      <path
         d="m 188.80905,214.78736 q -1.41867,-0.896 -1.41867,-2.83734 0,-1.94133 2.83733,-5.89867 0.82134,-1.26933 2.61334,-1.26933 1.86667,0 5.00267,1.86667 3.136,1.792 5.67467,1.792 4.55467,0 4.55467,-1.792 0,-1.41867 -5.00267,-2.09067 -4.70401,-0.672 -9.33334,-3.50934 -2.16533,-1.344 -3.584,-4.18133 -1.41867,-2.912 -1.41867,-6.86934 0,-11.79734 16.20267,-11.79734 5.30134,0 10.90134,2.53867 2.61334,1.19467 2.61334,2.98667 0,1.792 -1.64267,4.40533 -1.64267,2.61334 -3.36,2.61334 -0.896,0 -3.36,-1.12 -2.38934,-1.12 -5.22667,-1.12 -4.40534,0 -4.40534,1.64267 0,2.24 5.07734,2.912 4.928,0.52266 9.55734,2.83733 2.16533,1.04534 3.584,3.65867 1.49333,2.53867 1.49333,6.42134 0,3.88267 -1.49333,6.64533 -1.41867,2.688 -4.032,4.03201 -4.77867,2.31466 -12.02134,2.31466 -7.16801,0 -13.81334,-4.18133 z"
         style="font-size:74.6667px;font-family:'Fredoka One';-inkscape-font-specification:'Fredoka One';letter-spacing:-3.41px;fill:#9954f0;fill-opacity:1;stroke:#250f25;stroke-opacity:0.983044"
         id="path318" />
      <path
         d="m 243.41496,179.09667 q 7.46667,0 12.39467,5.67467 5.00267,5.67467 5.00267,13.88801 v 13.14134 q 0,1.71733 -0.14934,2.61333 -0.0747,0.82134 -0.672,1.94134 -0.97066,1.94133 -5.74933,1.94133 -4.55467,0 -5.67467,-1.94133 -0.59734,-1.12 -0.74667,-2.016 -0.0747,-0.896 -0.0747,-2.688 v -13.06668 q 0,-3.06133 -1.71733,-4.77867 -1.71733,-1.71733 -4.40534,-1.71733 -2.61333,0 -4.62933,1.64267 -2.016,1.568 -2.31467,3.584 v 14.48534 q 0,1.71733 -0.14933,2.61333 -0.0747,0.82134 -0.672,1.94134 -0.97067,1.94133 -5.74934,1.94133 -4.704,0 -5.74933,-2.016 -0.52267,-1.12 -0.672,-1.94133 -0.0747,-0.82134 -0.0747,-2.61334 v -44.65069 q 0,-1.71733 0.0747,-2.53866 0.14933,-0.896 0.672,-1.94134 1.04533,-2.016 5.824,-2.016 4.704,0 5.67467,2.016 0.59733,1.12 0.672,2.016 0.14933,0.82134 0.14933,2.53867 v 16.50134 q 3.73334,-4.55467 8.73601,-4.55467 z"
         style="font-size:74.6667px;font-family:'Fredoka One';-inkscape-font-specification:'Fredoka One';letter-spacing:-3.41px;fill:#9954f0;fill-opacity:1;stroke:#250f25;stroke-opacity:0.983044"
         id="path320" />
      <path
         d="m 262.2556,198.65935 q 0,-8.96 6.272,-14.78401 6.272,-5.824 14.33601,-5.824 8.064,0 14.26134,5.824 6.19734,5.74934 6.19734,14.70934 0,6.19734 -3.21067,11.05068 -3.21067,4.77866 -7.84001,7.09333 -4.55467,2.24 -9.48267,2.24 -4.928,0 -9.55734,-2.38933 -4.62933,-2.464 -7.84,-7.168 -3.136,-4.77867 -3.136,-10.75201 z m 15.60534,5.376 q 2.38933,1.792 4.85334,1.792 2.464,0 4.928,-1.86666 2.464,-1.86667 2.464,-5.52534 0,-3.65867 -2.31467,-5.45067 -2.31467,-1.792 -5.00267,-1.792 -2.688,0 -5.00267,1.86667 -2.31466,1.86666 -2.31466,5.52533 0,3.584 2.38933,5.45067 z"
         style="font-size:74.6667px;font-family:'Fredoka One';-inkscape-font-specification:'Fredoka One';letter-spacing:-3.41px;fill:#9954f0;fill-opacity:1;stroke:#250f25;stroke-opacity:0.983044"
         id="path322" />
      <path
         d="m 331.49619,179.39534 q 1.41866,0.448 2.31466,1.568 0.97067,1.04534 0.97067,3.43467 0,2.38933 -1.41867,5.22667 -1.41866,2.83733 -4.10666,2.83733 -1.34401,0 -2.61334,-0.59733 -1.19467,-0.59733 -3.21067,-0.59733 -2.016,0 -3.808,1.41866 -1.71733,1.41867 -1.71733,3.43467 v 15.68001 q 0,1.71733 -0.14934,2.61333 -0.0747,0.82134 -0.672,1.94134 -1.12,1.94133 -5.824,1.94133 -3.584,0 -5.152,-1.26933 -1.19467,-1.04534 -1.344,-3.21067 0,-0.74667 0,-2.16533 v -26.20802 q 0,-1.71733 0.0747,-2.53866 0.14934,-0.896 0.672,-1.94134 1.04534,-2.016 5.82401,-2.016 4.48,0 5.6,1.71733 0.82133,1.19467 0.82133,2.46401 0.37334,-0.52267 1.04534,-1.26934 0.74666,-0.74667 3.06133,-2.016 2.31467,-1.26933 4.032,-1.26933 1.792,0 2.98667,0.224 1.19467,0.14933 2.61334,0.59733 z"
         style="font-size:74.6667px;font-family:'Fredoka One';-inkscape-font-specification:'Fredoka One';letter-spacing:-3.41px;fill:#9954f0;fill-opacity:1;stroke:#250f25;stroke-opacity:0.983044"
         id="path324" />
      <path
         d="m 358.32612,192.16335 -4.85334,-0.29867 v 10.304 q 0,2.01601 0.59734,2.91201 0.672,0.896 2.38933,0.896 1.792,0 2.688,0.14933 0.97067,0.0747 2.016,0.672 1.71734,0.97067 1.71734,5.00267 0,4.704 -2.09067,5.74934 -1.12,0.52266 -2.016,0.672 -0.82133,0.0747 -2.464,0.0747 -7.76534,0 -11.79734,-3.50933 -4.032,-3.50934 -4.032,-11.87201 v -11.05067 q -1.41867,0.224 -3.06134,0.224 -1.64267,0 -2.76267,-1.26933 -1.04533,-1.26934 -1.04533,-4.33067 0,-3.06134 0.37333,-4.40534 0.37334,-1.41867 1.04534,-2.016 1.19466,-0.97067 2.98667,-0.97067 l 2.464,0.29867 v -7.69067 q 0,-1.71733 0.0747,-2.53867 0.14934,-0.82133 0.74667,-1.792 0.97067,-1.86667 5.74934,-1.86667 5.07733,0 6.048,2.76267 0.37333,1.19467 0.37333,3.808 v 7.31734 q 3.28534,-0.29867 4.92801,-0.29867 1.71733,0 2.53866,0.14934 0.896,0.0747 2.016,0.672 1.94134,0.97066 1.94134,5.74933 0,4.70401 -2.016,5.74934 -1.12,0.52267 -2.016,0.672 -0.82134,0.0747 -2.53867,0.0747 z"
         style="font-size:74.6667px;font-family:'Fredoka One';-inkscape-font-specification:'Fredoka One';letter-spacing:-3.41px;fill:#9954f0;fill-opacity:1;stroke:#250f25;stroke-opacity:0.983044"
         id="path326" />
      <path
         d="m 402.03073,193.95535 q 0,4.55467 -2.31467,6.79467 -2.24,2.16533 -5.00267,2.16533 h -17.69601 q 0,2.09067 2.464,3.50934 2.464,1.41866 4.928,1.41866 4.33067,0 6.79467,-0.896 l 0.82134,-0.29866 q 1.792,-0.82134 2.98667,-0.82134 2.38933,0 4.10666,3.36 0.97067,2.01601 0.97067,3.43467 0,6.64534 -15.90401,6.64534 -5.52533,0 -9.856,-1.86667 -4.256,-1.94133 -6.64534,-5.07733 -4.704,-6.04801 -4.704,-13.51468 0,-9.408 6.048,-15.008 6.12267,-5.67467 15.23201,-5.67467 10.37867,0 15.23201,7.31733 2.53867,3.88267 2.53867,8.51201 z m -15.75468,2.16533 q 2.83734,0 2.83734,-2.38933 0,-1.71734 -1.344,-2.76267 -1.26934,-1.04533 -3.73334,-1.04533 -2.38933,0 -4.77867,2.016 -2.38933,1.94133 -2.38933,4.18133 z"
         style="font-size:74.6667px;font-family:'Fredoka One';-inkscape-font-specification:'Fredoka One';letter-spacing:-3.41px;fill:#9954f0;fill-opacity:1;stroke:#250f25;stroke-opacity:0.983044"
         id="path328" />
      <path
         d="m 425.35139,178.94734 q 7.46667,0 12.39468,5.74934 5.00266,5.67467 5.00266,13.888 v 13.14134 q 0,1.71734 -0.14933,2.61334 -0.0747,0.82133 -0.59733,1.86666 -1.04534,2.01601 -5.82401,2.01601 -5.30133,0 -6.12266,-2.76267 -0.44801,-1.26934 -0.44801,-3.808 v -13.14134 q 0,-3.06134 -1.792,-4.77867 -1.71733,-1.71734 -4.704,-1.71734 -2.912,0 -4.77867,1.792 -1.792,1.79201 -1.792,4.70401 v 13.216 q 0,1.71734 -0.14933,2.61334 -0.0747,0.82133 -0.672,1.86666 -0.97067,2.01601 -5.74934,2.01601 -4.704,0 -5.74933,-2.01601 -0.52267,-1.12 -0.672,-1.94133 -0.0747,-0.896 -0.0747,-2.61333 v -26.43202 q 0,-1.64266 0.0747,-2.464 0.14933,-0.896 0.74666,-1.94133 1.04534,-1.86667 5.74934,-1.86667 4.55467,0 5.6,1.71733 0.74667,1.26934 0.74667,3.06134 0.29867,-0.52267 1.344,-1.49333 1.04533,-0.97067 2.016,-1.56801 2.53867,-1.71733 5.6,-1.71733 z"
         style="font-size:74.6667px;font-family:'Fredoka One';-inkscape-font-specification:'Fredoka One';letter-spacing:-3.41px;fill:#9954f0;fill-opacity:1;stroke:#250f25;stroke-opacity:0.983044"
         id="path330" />
      <path
         d="m 483.2427,193.95535 q 0,4.55467 -2.31467,6.79467 -2.24,2.16533 -5.00267,2.16533 h -17.696 q 0,2.09067 2.464,3.50934 2.464,1.41866 4.928,1.41866 4.33067,0 6.79467,-0.896 l 0.82133,-0.29866 q 1.792,-0.82134 2.98667,-0.82134 2.38934,0 4.10667,3.36 0.97067,2.01601 0.97067,3.43467 0,6.64534 -15.90401,6.64534 -5.52534,0 -9.85601,-1.86667 -4.256,-1.94133 -6.64533,-5.07733 -4.704,-6.04801 -4.704,-13.51468 0,-9.408 6.048,-15.008 6.12267,-5.67467 15.23201,-5.67467 10.37867,0 15.232,7.31733 2.53867,3.88267 2.53867,8.51201 z m -15.75467,2.16533 q 2.83733,0 2.83733,-2.38933 0,-1.71734 -1.344,-2.76267 -1.26933,-1.04533 -3.73333,-1.04533 -2.38934,0 -4.77867,2.016 -2.38934,1.94133 -2.38934,4.18133 z"
         style="font-size:74.6667px;font-family:'Fredoka One';-inkscape-font-specification:'Fredoka One';letter-spacing:-3.41px;fill:#9954f0;fill-opacity:1;stroke:#250f25;stroke-opacity:0.983044"
         id="path332" />
      <path
         d="m 511.41669,179.39534 q 1.41867,0.448 2.31467,1.568 0.97066,1.04534 0.97066,3.43467 0,2.38933 -1.41866,5.22667 -1.41867,2.83733 -4.10667,2.83733 -1.344,0 -2.61334,-0.59733 -1.19466,-0.59733 -3.21067,-0.59733 -2.016,0 -3.808,1.41866 -1.71733,1.41867 -1.71733,3.43467 v 15.68001 q 0,1.71733 -0.14933,2.61333 -0.0747,0.82134 -0.67201,1.94134 -1.12,1.94133 -5.824,1.94133 -3.584,0 -5.152,-1.26933 -1.19467,-1.04534 -1.344,-3.21067 0,-0.74667 0,-2.16533 v -26.20802 q 0,-1.71733 0.0747,-2.53866 0.14933,-0.896 0.672,-1.94134 1.04533,-2.016 5.824,-2.016 4.48,0 5.6,1.71733 0.82134,1.19467 0.82134,2.46401 0.37333,-0.52267 1.04533,-1.26934 0.74667,-0.74667 3.06133,-2.016 2.31467,-1.26933 4.03201,-1.26933 1.792,0 2.98666,0.224 1.19467,0.14933 2.61334,0.59733 z"
         style="font-size:74.6667px;font-family:'Fredoka One';-inkscape-font-specification:'Fredoka One';letter-spacing:-3.41px;fill:#9954f0;fill-opacity:1;stroke:#250f25;stroke-opacity:0.983044"
         id="path334" />
      <path
         style="fill:#090311;fill-opacity:1;stroke:#c09ae7;stroke-width:6.57718;stroke-linecap:round;stroke-linejoin:round;stroke-dasharray:none;stroke-opacity:1;marker-end:url(#Arrow3);paint-order:normal"
         d="m 511.41342,127.37181 c -154.71293,0 -164.75391,0.11064 -164.75391,0.11064"
         id="path416" />
      <path
         style="fill:#090311;fill-opacity:1;stroke:#c09ae7;stroke-width:4.27713;stroke-linecap:round;stroke-linejoin:round;stroke-dasharray:none;stroke-opacity:1;marker-end:url(#Arrow3-3);paint-order:normal"
         d="m 498.73905,150.3597 c -100.60958,0 -107.13921,0.0719 -107.13921,0.0719"
         id="path416-7" />
      <path
         style="fill:#090311;fill-opacity:1;stroke:#c09ae7;stroke-width:4.27713;stroke-linecap:round;stroke-linejoin:round;stroke-dasharray:none;stroke-opacity:1;marker-end:url(#Arrow3-3-5);paint-order:normal"
         d="m 498.73905,104.32184 c -100.60958,0 -107.1392,0.0719 -107.1392,0.0719"
         id="path416-7-5" />
    </g>
  </g>
</svg>
